<?xml version="1.0" encoding="UTF-8" standalone="no"?>
<svg
   xmlns:dc="http://purl.org/dc/elements/1.1/"
   xmlns:cc="http://creativecommons.org/ns#"
   xmlns:rdf="http://www.w3.org/1999/02/22-rdf-syntax-ns#"
   xmlns:svg="http://www.w3.org/2000/svg"
   xmlns="http://www.w3.org/2000/svg"
   xmlns:sodipodi="http://sodipodi.sourceforge.net/DTD/sodipodi-0.dtd"
   xmlns:inkscape="http://www.inkscape.org/namespaces/inkscape"
   version="1.1"
   id="svg2"
   viewBox="0 0 352.68247 394.89876"
   height="111.4492mm"
   width="99.534828mm"
   inkscape:version="0.91 r13725"
   sodipodi:docname="bees.svg"
   inkscape:export-filename="/Users/bumble/Desktop/front.png"
   inkscape:export-xdpi="350"
   inkscape:export-ydpi="350">
  <sodipodi:namedview
     pagecolor="#ffffff"
     bordercolor="#666666"
     borderopacity="1"
     objecttolerance="10"
     gridtolerance="10"
     guidetolerance="10"
     inkscape:pageopacity="0"
     inkscape:pageshadow="2"
     inkscape:window-width="971"
     inkscape:window-height="560"
     id="namedview3348"
     showgrid="false"
     fit-margin-top="0"
     fit-margin-left="0"
     fit-margin-right="0"
     fit-margin-bottom="0"
     inkscape:zoom="0.1888"
     inkscape:cx="419.42089"
     inkscape:cy="658.85904"
     inkscape:window-x="0"
     inkscape:window-y="0"
     inkscape:window-maximized="0"
     inkscape:current-layer="layer1" />
  <defs
     id="defs4" />
  <metadata
     id="metadata7">
    <rdf:RDF>
      <cc:Work
         rdf:about="">
        <dc:format>image/svg+xml</dc:format>
        <dc:type
           rdf:resource="http://purl.org/dc/dcmitype/StillImage" />
        <dc:title></dc:title>
      </cc:Work>
    </rdf:RDF>
  </metadata>
  <g
     transform="translate(-1402.2074,-1266.2983)"
     id="layer1">
    <path
       id="path3401"
       d="m 1680.0988,1659.471 c -0.904,-1.0058 -2.6074,-3.0282 -3.7853,-4.4942 -2.6624,-3.3133 -9.8521,-7.5345 -19.0939,-11.2101 -7.0545,-2.8056 -7.0801,-2.8096 -12.6752,-1.9702 -18.3183,2.7481 -32.7059,1.0332 -48.3852,-5.7673 -20.9685,-9.0946 -35.8073,-24.795 -44.821,-47.423 l -0.8897,-2.2336 -1.6102,1.9401 c -0.8856,1.0671 -3.7549,5.0179 -6.3762,8.7798 -15.1446,21.7342 -34.4961,29.5694 -51.9002,21.0139 -5.8879,-2.8944 -10.0355,-6.5313 -13.6908,-12.0049 -4.7207,-7.0695 -6.2337,-11.8328 -6.7422,-21.2267 l -0.4439,-8.2017 -5.9904,-0.4971 c -12.2591,-1.0172 -20.1974,-4.1776 -29.7045,-11.8257 -7.6441,-6.1493 -14.6717,-15.065 -19.0847,-24.212 -5.4593,-11.3161 -6.8845,-19.453 -4.9841,-28.4585 3.0133,-14.2803 12.5423,-24.3805 31.6567,-33.5546 16.8532,-8.0887 28.2727,-10.7855 47.1199,-11.1276 10.717,-0.1946 13.7562,-0.464 13.6252,-1.208 -0.093,-0.5268 -1.4024,-4.4807 -2.9105,-8.7867 -2.4813,-7.0848 -2.7752,-8.7557 -3.0932,-17.5824 -0.5401,-14.992 2.3805,-26.4442 9.5878,-37.5953 1.6072,-2.4866 2.9221,-5.1597 2.9221,-5.9401 0,-3.2647 -11.2526,-17.8779 -20.9813,-27.2474 -11.0257,-10.6185 -19.6851,-15.5931 -31.2073,-17.9278 -7.5165,-1.5231 -13.574,-1.0665 -21.6011,1.6281 -19.3912,6.5093 -28.8108,21.8237 -24.2332,39.3982 3.1026,11.9116 12.5928,21.2759 21.562,21.2759 4.79,0 10.8258,-2.4966 13.9585,-5.7736 3.6257,-3.7928 4.345,-5.4152 4.345,-9.8 0,-6.2641 -2.5407,-9.6607 -4.495,-6.0091 -0.4507,0.8421 -1.8885,2.183 -3.1951,2.9797 -8.5145,5.1917 -18.4105,-4.718 -13.2171,-13.2355 3.1695,-5.1981 9.6974,-5.9622 17.659,-2.0669 4.2271,2.0681 6.8456,4.7321 9.4225,9.5863 2.433,4.5832 2.256,12.911 -0.3834,18.0287 -4.909,9.519 -17.3911,15.5523 -28.1591,13.6111 -5.6676,-1.0217 -10.6129,-3.8944 -15.1579,-8.8051 -7.3562,-7.9481 -10.9384,-17.2996 -10.9384,-28.5554 0,-15.4149 8.3414,-27.8876 23.5775,-35.2549 23.9012,-11.5573 48.7235,-4.846 71.6415,19.3701 3.6485,3.855 8.9181,10.2321 11.7104,14.1714 2.7923,3.9393 5.3583,7.3361 5.7021,7.5486 0.3438,0.2125 3.0583,-1.4936 6.0322,-3.7914 6.8921,-5.3251 17.1606,-10.3107 25.1429,-12.2075 3.433,-0.8158 6.4121,-1.6535 6.6201,-1.8616 0.2082,-0.208 -1.3153,-4.3333 -3.3854,-9.1673 -7.254,-16.9391 -9.8495,-28.0869 -9.8495,-42.3045 0,-15.8224 4.5604,-27.9737 14.1159,-37.613 16.5236,-16.6685 36.4529,-20.1825 53.3617,-9.4089 5.5024,3.506 12.1502,11.0928 15.0214,17.1431 6.3418,13.3639 4.6879,24.522 -4.9584,33.4528 -11.7095,10.8409 -28.2503,9.3976 -35.6009,-3.1065 -1.8683,-3.1784 -2.0496,-4.1492 -2.0496,-10.9761 0,-8.3684 0.8083,-10.4471 5.0733,-13.0477 4.8111,-2.9335 11.0363,-1.0937 13.4401,3.9719 1.5213,3.2058 1.563,5.0411 0.189,8.3293 -1.1889,2.8456 -3.8135,4.8449 -7.2948,5.557 -3.082,0.6302 -3.3048,1.631 -0.9788,4.3954 5.5223,6.5628 15.5161,5.7731 23.1159,-1.8267 4.0055,-4.0055 5.0969,-7.146 4.7314,-13.6147 -0.5683,-10.0561 -8.0315,-20.495 -18.2522,-25.5296 -4.3656,-2.1506 -5.9966,-2.5364 -11.681,-2.7626 -7.952,-0.3166 -13.062,1.2454 -20.8108,6.3608 -19.8139,13.0808 -24.9427,36.2236 -14.7764,66.6773 2.7789,8.3243 9.1436,22.1747 10.6233,23.1177 0.3928,0.2502 3.1606,0.6618 6.1506,0.9146 13.8896,1.1741 28.5525,8.3657 39.3267,19.2882 2.7483,2.7861 5.177,5.0657 5.3973,5.0657 0.2203,0 1.7886,-2.7681 3.485,-6.1513 8.1066,-16.1661 19.4897,-29.8496 33.9178,-40.772 13.0324,-9.8658 25.739,-12.5491 38.8356,-8.201 17.5413,5.824 33.9155,27.6903 37.5345,50.1245 1.0581,6.5595 0.2123,14.6547 -2.3454,22.446 -0.9502,2.8944 -1.3543,5.2293 -0.9627,5.5619 0.3713,0.3153 2.5806,1.1488 4.9095,1.8522 8.7685,2.6482 17.7736,10.5539 22.1506,19.4463 8.9359,18.1541 1.8481,37.2095 -17.5526,47.1894 -9.9564,5.1217 -24.6595,9.1503 -37.7127,10.3332 -7.7913,0.706 -8.2385,1.1163 -4.9879,4.5758 16.7689,17.8463 24.502,40.206 22.2516,64.3392 -1.6525,17.7212 -7.5742,32.1094 -19.4024,47.1424 -2.7199,3.4569 -4.5582,8.0574 -7.0828,17.7254 -1.3838,5.2995 -1.8458,19.3848 -0.7864,23.976 0.5273,2.2846 0.3763,2.979 -0.932,4.2873 -2.0075,2.0075 -2.7565,1.9654 -4.7638,-0.2675 z m -37.2269,-25.3988 c 16.1232,-3.0585 28.8136,-9.6548 40.1239,-20.8557 6.8752,-6.8088 11.0562,-12.6899 15.2686,-21.4778 3.1575,-6.5874 6.9228,-19.8813 5.9252,-20.9199 -0.3355,-0.3493 -3.411,1.7913 -6.8346,4.7568 -22.486,19.4775 -53.2719,37.6869 -86.9514,51.4305 -3.3913,1.3839 -6.0567,2.8446 -5.9229,3.2458 0.1338,0.4013 1.5664,1.1906 3.1837,1.7541 8.8784,3.0938 24.8498,4.031 35.2075,2.0662 z m -126.2137,-23.1281 c 6.0516,-2.9237 16.6109,-13.4963 22.6854,-22.7141 8.5192,-12.9275 18.8884,-35.6686 26.0868,-57.2127 3.5849,-10.7291 3.7041,-11.684 1.3699,-10.972 -3.5086,1.0704 -28.2723,12.6211 -39.7036,18.5195 -28.2768,14.5901 -42.9206,25.3185 -47.1406,34.5364 -6.4091,13.9991 1.3715,33.2898 15.7181,38.9707 5.7657,2.2831 14.9452,1.7897 20.984,-1.1278 z m 56.6662,-23.9429 c 22.6362,-4.2733 64.7141,-24.8976 87.2361,-42.7584 11.1681,-8.8568 28.7059,-27.7121 28.7059,-30.8625 0,-1.4687 -8.3439,-10.4158 -11.4383,-12.2651 -1.9439,-1.1618 -3.9067,-1.4146 -11.2346,-1.4467 -4.8835,-0.022 -9.5809,0.2278 -10.4386,0.5539 -0.8575,0.3261 -4.4112,3.013 -7.8969,5.9706 -8.969,7.6103 -24.0471,17.5142 -35.614,23.3925 -14.1193,7.1754 -24.8543,11.2059 -40.8965,15.3546 -2.7336,0.707 -3.213,1.1795 -4.3956,4.3335 -0.7301,1.947 -3.625,8.7967 -6.4331,15.2215 l -5.1058,11.6815 1.5671,5.0947 c 2.4129,7.8442 2.4238,7.8566 6.4847,7.3188 1.9221,-0.2545 6.1789,-0.9695 9.4596,-1.5889 z m -98.8472,-20.5262 c 2.2136,-3.581 12.599,-13.1083 19.0672,-17.4917 12.2301,-8.2883 34.0128,-19.89 57.2161,-30.474 6.5233,-2.9757 10.7229,-5.43 13.4115,-7.8381 4.67,-4.1828 4.8593,-3.7585 -4.955,-11.0993 -22.7531,-17.0186 -44.8643,-24.9761 -69.4007,-24.9761 -17.7907,0 -30.2012,3.1435 -47.5699,12.0491 -11.9265,6.1151 -18.6329,11.9495 -22.3015,19.4016 -6.5968,13.4001 -1.6401,30.9759 13.2809,47.0925 9.8244,10.6114 22.6544,16.1215 35.7104,15.3366 3.7125,-0.2233 4.6521,-0.5625 5.541,-2.0006 z m 96.7865,-75.1885 c 8.0512,-3.0745 18.0954,-8.949 28.6409,-16.7512 6.6471,-4.918 8.8362,-6.9458 8.8362,-8.1855 0,-0.9063 -0.5013,-4.9738 -1.114,-9.039 -0.6127,-4.0651 -1.1206,-9.4042 -1.1286,-11.8647 -0.016,-4.9894 -0.5844,-7.8289 -1.5665,-7.8289 -0.3589,0 -4.43,2.7976 -9.0467,6.2168 -18.5626,13.7479 -37.3686,25.0911 -51.8708,31.2867 -2.5878,1.1056 -4.5045,2.3348 -4.2593,2.7316 0.2452,0.3967 2.7645,1.9397 5.5982,3.4289 2.8338,1.4891 8.4112,4.856 12.3941,7.482 3.983,2.626 7.3271,4.7746 7.4314,4.7746 0.1042,0 2.8426,-1.0131 6.0851,-2.2513 z m 119.8668,-0.7247 c 28.1363,-3.1953 45.4278,-10.5559 52.7558,-22.4568 2.2892,-3.7176 3.744,-10.3338 3.247,-14.7655 -1.6776,-14.9546 -17.6767,-28.5299 -31.406,-26.6481 -11.5952,1.5893 -29.2931,13.9159 -57.4036,39.9818 -14.7674,13.6932 -23.8628,23.0078 -23.1587,23.7165 1.5989,1.6094 42.2103,1.7342 55.9655,0.1721 z m -43.8101,-23.9709 c 28.2493,-27.2918 47.6248,-41.7945 61.9992,-46.4066 4.5453,-1.4584 5.0511,-1.8386 6.5657,-4.9353 2.778,-5.6798 4.197,-13.5696 3.7398,-20.7929 -1.1235,-17.7469 -14.2256,-37.8393 -29.613,-45.4121 -3.6684,-1.8053 -4.9266,-2.0182 -11.9298,-2.0182 -7.3129,0 -8.1728,0.1626 -13.0481,2.4675 -14.086,6.6595 -31.8591,25.3139 -40.6271,42.6418 -11.9244,23.5659 -13.4618,56.1189 -4.0318,85.3721 2.6861,8.3326 2.6015,8.2755 8.0067,5.4023 3.266,-1.7362 8.6165,-6.3465 18.9384,-16.3186 z"
       style="fill:#ffcc00;fill-opacity:1"
       inkscape:connector-curvature="0" />
  </g>
</svg>
