<?xml version="1.0" encoding="UTF-8" standalone="no"?>
<svg
   xmlns:dc="http://purl.org/dc/elements/1.1/"
   xmlns:cc="http://creativecommons.org/ns#"
   xmlns:rdf="http://www.w3.org/1999/02/22-rdf-syntax-ns#"
   xmlns:svg="http://www.w3.org/2000/svg"
   xmlns="http://www.w3.org/2000/svg"
   version="1.1"
   id="svg2"
   viewBox="0 0 985.44456 1103.4028"
   height="311.40479mm"
   width="278.11435mm">
  <defs
     id="defs4" />
  <metadata
     id="metadata7">
    <rdf:RDF>
      <cc:Work
         rdf:about="">
        <dc:format>image/svg+xml</dc:format>
        <dc:type
           rdf:resource="http://purl.org/dc/dcmitype/StillImage" />
        <dc:title></dc:title>
      </cc:Work>
    </rdf:RDF>
  </metadata>
  <g
     transform="translate(-178.69048,-319.44679)"
     id="layer1">
    <path
       id="path3401"
       d="m 955.15829,1418.0266 c -2.52604,-2.8102 -7.28569,-8.4609 -10.577,-12.5571 -7.43888,-9.258 -27.5279,-21.0525 -53.35058,-31.3226 -19.71132,-7.8396 -19.78323,-7.8508 -35.41667,-5.5054 -51.18392,7.6786 -91.38481,2.8869 -135.19473,-16.1145 -58.58892,-25.4114 -100.05108,-69.2805 -125.2364,-132.5067 l -2.48589,-6.2406 -4.49911,5.4208 c -2.4745,2.9814 -10.4917,14.0207 -17.816,24.5319 -42.31639,60.7285 -96.38693,82.6212 -145.01643,58.7159 -16.45192,-8.0874 -28.04084,-18.2494 -38.25394,-33.5436 -13.1905,-19.753 -17.41802,-33.0624 -18.83888,-59.3103 l -1.24052,-22.9167 -16.73773,-1.3889 c -34.25375,-2.8424 -56.43452,-11.6728 -82.99862,-33.0425 -21.35869,-17.1822 -40.99482,-42.0939 -53.32524,-67.6519 -15.25433,-31.6187 -19.2362,-54.3543 -13.92648,-79.5173 8.4196,-39.90085 35.04498,-68.12235 88.45334,-93.75588 47.09021,-22.6011 78.99821,-30.13639 131.65973,-31.09231 29.94469,-0.54354 38.43661,-1.29646 38.07067,-3.37541 -0.25904,-1.47169 -3.91852,-12.51957 -8.13219,-24.55082 -6.93314,-19.79625 -7.75448,-24.46481 -8.64302,-49.12791 -1.50917,-41.88984 6.65146,-73.88896 26.78965,-105.04667 4.49068,-6.94798 8.16489,-14.41679 8.16489,-16.59735 0,-9.12196 -31.4415,-49.95342 -58.62491,-76.13317 -30.80721,-29.66971 -55.00261,-43.56944 -87.19742,-50.09294 -21.00208,-4.25556 -37.92781,-2.97983 -60.35654,4.54925 -54.18167,18.18819 -80.5013,60.97861 -67.7109,110.08429 8.66904,33.28269 35.18603,59.44784 60.24725,59.44784 13.38381,0 30.24863,-6.97582 39.00198,-16.13244 10.13056,-10.59727 12.14054,-15.13071 12.14054,-27.38258 0,-17.5028 -7.09916,-26.99319 -12.55966,-16.79017 -1.25927,2.35298 -5.27663,6.09948 -8.92746,8.32554 -23.79098,14.5064 -51.4417,-13.18262 -36.93055,-36.98171 8.85595,-14.52425 27.0958,-16.65916 49.34163,-5.77529 11.81129,5.77871 19.12758,13.22227 26.32781,26.78567 6.79827,12.80623 6.30346,36.07483 -1.07125,50.37485 -13.71645,26.59711 -48.59308,43.45509 -78.68052,38.03104 -15.83593,-2.85485 -29.65369,-10.8815 -42.35307,-24.60262 -20.55441,-22.20815 -30.56359,-48.33761 -30.56359,-79.78773 0,-43.07154 23.30696,-77.92198 65.87884,-98.50738 66.78334,-32.29266 136.14028,-13.54022 200.17651,54.1229 10.19413,10.7715 24.91835,28.59013 32.7205,39.59692 7.80215,11.00681 14.97171,20.49812 15.93238,21.09185 0.96066,0.59373 8.54533,-4.17346 16.85485,-10.59371 19.25754,-14.87916 47.94921,-28.80975 70.25271,-34.1096 9.59244,-2.2794 17.91648,-4.62002 18.49783,-5.2014 0.58138,-0.58135 -3.67542,-12.108 -9.45954,-25.61475 -20.26871,-47.33043 -27.52075,-78.47877 -27.52075,-118.20462 0,-44.20994 12.74219,-78.16284 39.44158,-105.09628 46.16934,-46.57406 101.85471,-56.39265 149.10009,-26.28972 15.37456,9.79608 33.94962,30.9947 41.97208,47.90027 17.71981,37.3406 13.09869,68.5179 -13.85444,93.47177 -32.71816,30.29123 -78.93535,26.25835 -99.47387,-8.68002 -5.22052,-8.88071 -5.72711,-11.59345 -5.72711,-30.66873 0,-23.38235 2.25846,-29.19067 14.17569,-36.45707 13.44279,-8.19658 30.83694,-3.05615 37.55356,11.09807 4.25067,8.95765 4.36704,14.08559 0.52811,23.27347 -3.32211,7.95089 -10.65565,13.5372 -20.38294,15.52665 -8.61135,1.76121 -9.234,4.55753 -2.73469,12.28152 15.42992,18.33742 43.35417,16.1308 64.58888,-5.10393 11.19189,-11.19189 14.24139,-19.96706 13.2201,-38.04173 -1.58767,-28.09772 -22.44092,-57.26552 -50.99906,-71.33333 -12.19821,-6.00885 -16.75556,-7.08665 -32.63838,-7.71884 -22.21908,-0.8844 -36.4972,3.47976 -58.1481,17.7732 -55.36304,36.54944 -69.69338,101.21357 -41.2875,186.30559 7.76456,23.25938 25.54842,61.95919 29.68312,64.59407 1.09732,0.69929 8.83086,1.84925 17.18565,2.55548 38.80935,3.2806 79.77975,23.375 109.88417,53.89393 7.67906,7.78481 14.46546,14.15419 15.08091,14.15419 0.61544,0 4.99738,-7.73438 9.73765,-17.1875 22.65062,-45.17029 54.45685,-83.40402 94.77106,-113.92267 36.4144,-27.56641 71.91831,-35.06379 108.51186,-22.9145 49.01317,16.27267 94.76477,77.37025 104.87687,140.0545 2.9566,18.32823 0.5932,40.94727 -6.5534,62.71723 -2.655,8.08775 -3.7841,14.61142 -2.6897,15.5409 1.0374,0.88104 7.2103,3.20989 13.7176,5.17521 24.5004,7.39954 49.6618,29.48908 61.8921,54.33595 24.9682,50.72484 5.1637,103.9683 -49.0445,131.85369 -27.8198,14.31088 -68.9023,25.5674 -105.37479,28.87244 -21.76995,1.97275 -23.01966,3.11921 -13.93695,12.78542 46.85484,49.86498 68.46224,112.34128 62.17434,179.77268 -4.6173,49.5157 -21.1635,89.7183 -54.21324,131.7228 -7.59981,9.6589 -12.73623,22.5134 -19.79027,49.5272 -3.86663,14.8074 -5.15736,54.1637 -2.19708,66.9923 1.47302,6.3834 1.0512,8.3237 -2.60417,11.9791 -5.60936,5.6094 -7.70229,5.4918 -13.31075,-0.7475 z m -104.01713,-70.9678 c 45.05017,-8.5458 80.50923,-26.9768 112.11165,-58.2735 19.2105,-19.0247 30.89256,-35.4575 42.66259,-60.0123 8.8225,-18.4059 19.3433,-55.551 16.5558,-58.4529 -0.9373,-0.9759 -9.5308,5.0051 -19.0967,13.2911 -62.829,54.4228 -148.84927,105.3025 -242.95459,143.7042 -9.47587,3.8668 -16.92312,7.9479 -16.54939,9.0691 0.37371,1.1211 4.37671,3.3267 8.89556,4.9013 24.80773,8.6443 69.43377,11.2631 98.37508,5.773 z m -352.65902,-64.6231 c 16.90907,-8.1691 46.41315,-37.7105 63.38638,-63.4663 23.80387,-36.1211 52.77664,-99.6632 72.89004,-159.8602 10.01673,-29.9789 10.34985,-32.647 3.82775,-30.6574 -9.80354,2.9906 -78.99681,35.2652 -110.9375,51.7459 -79.00942,40.7669 -119.92623,70.7436 -131.71769,96.4995 -17.90777,39.1158 3.83213,93.0163 43.91884,108.8897 16.11016,6.3792 41.75879,5.0007 58.63218,-3.1512 z m 158.33334,-66.8997 c 63.24893,-11.9404 180.8202,-69.5675 243.75,-119.473 31.20533,-24.747 80.20833,-77.4314 80.20833,-86.2342 0,-4.1037 -23.31438,-29.10326 -31.96027,-34.27047 -5.43158,-3.24615 -10.91586,-3.95236 -31.39108,-4.04227 -13.64532,-0.06 -26.77032,0.63662 -29.16667,1.54787 -2.39633,0.91123 -12.32573,8.4184 -22.06531,16.68261 -25.06065,21.26436 -67.1909,48.93686 -99.51061,65.36176 -39.45125,20.0492 -69.44641,31.3109 -114.2706,42.9031 -7.63796,1.9753 -8.97734,3.2957 -12.28177,12.1083 -2.03988,5.4402 -10.12873,24.5792 -17.97519,42.5311 l -14.26629,32.6398 4.37881,14.2352 c 6.74198,21.9178 6.77265,21.9523 18.11925,20.4498 5.3706,-0.7112 17.26473,-2.709 26.4314,-4.4396 z M 380.6225,1158.183 c 6.18514,-10.0061 35.20329,-36.6267 53.27631,-48.8746 34.17281,-23.1585 95.03652,-55.5753 159.86987,-85.1487 18.22723,-8.3143 29.96125,-15.172 37.47371,-21.9006 13.04861,-11.68713 13.57773,-10.50188 -13.84493,-31.01313 -63.57548,-47.55233 -125.35725,-69.78641 -193.91532,-69.78641 -49.70989,0 -84.38664,8.78331 -132.91721,33.66671 -33.32402,17.08645 -52.06276,33.3886 -62.3136,54.21102 -18.4324,37.44151 -4.58255,86.55091 37.10907,131.58281 27.45051,29.6498 63.29935,45.0459 99.77978,42.8525 10.37315,-0.6237 12.99857,-1.5715 15.48232,-5.5896 z M 651.05748,948.09558 c 22.49627,-8.59052 50.56098,-25.00475 80.02664,-46.80525 18.57302,-13.74146 24.68969,-19.40763 24.68969,-22.87131 0,-2.5324 -1.40073,-13.89769 -3.11271,-25.25619 -1.712,-11.3585 -3.13106,-26.27681 -3.15346,-33.15181 -0.0454,-13.94109 -1.63287,-21.875 -4.37685,-21.875 -1.00304,0 -12.37806,7.81679 -25.27786,17.37066 -51.86668,38.41365 -104.41318,70.10796 -144.93427,87.41955 -7.23077,3.08914 -12.58623,6.52368 -11.90106,7.63233 0.68517,1.10862 7.72415,5.41998 15.64217,9.58079 7.91802,4.16079 23.50196,13.56844 34.63094,20.90588 11.129,7.33743 20.47287,13.34079 20.76416,13.34079 0.29129,0 7.94246,-2.83069 17.00261,-6.29044 z m 334.92466,-2.02481 c 78.61686,-8.92836 126.93166,-29.49471 147.40746,-62.7475 6.3962,-10.38744 10.4613,-28.87398 9.0723,-41.25692 -4.6873,-41.78529 -49.391,-79.7166 -87.7528,-74.45854 -32.3987,4.44075 -81.84871,38.88283 -160.39362,111.71483 -41.26196,38.26079 -66.67609,64.28698 -64.70877,66.26719 4.46745,4.49679 117.94166,4.84577 156.37543,0.48094 z M 863.57068,879.09283 c 78.93265,-76.25742 133.07042,-116.77975 173.23452,-129.66671 12.7,-4.07492 14.1136,-5.13746 18.3455,-13.7901 7.762,-15.87009 11.7269,-37.91527 10.4493,-58.09817 -3.1391,-49.58752 -39.7482,-105.72829 -82.74286,-126.88773 -10.24985,-5.04437 -13.76541,-5.6391 -33.33333,-5.6391 -20.43342,0 -22.83606,0.45435 -36.45833,6.89462 -39.35823,18.60754 -89.01846,70.7305 -113.51755,119.14704 -33.31862,65.84627 -37.61422,156.80392 -11.2655,238.54167 7.50523,23.28235 7.26886,23.12287 22.37169,15.0946 9.12588,-4.85108 24.07579,-17.73283 52.91656,-45.59612 z"
       style="fill:#000000;fill-opacity:1" />
  </g>
</svg>
